<svg width="347" height="58" viewBox="0 0 347 58" fill="none" xmlns="http://www.w3.org/2000/svg">
<path d="M85.2808 38.6389V28.9849C85.2808 23.9892 81.24 19.9485 76.188 19.9485H75.7948C73.8305 19.9485 71.8657 20.6218 70.9117 21.8006V10.3503C70.9117 8.9463 69.8451 8.21753 68.7785 8.21753C67.7119 8.21753 66.6457 8.94676 66.6457 10.3503V45.6548C66.6457 47.002 67.7123 47.6754 68.7785 47.6754C69.733 47.6754 70.687 47.1137 70.8554 45.9926C71.641 46.7777 73.2688 47.6754 75.6822 47.6754H76.1876C81.1833 47.6754 85.2808 43.6346 85.2808 38.6389ZM81.0153 38.6389C81.0153 41.2771 78.8825 43.4103 76.188 43.4103H75.6826C73.1571 43.4103 70.9122 41.7261 70.9122 38.9758V28.5358C70.9122 25.9535 73.1576 24.214 75.6826 24.214H76.188C78.8825 24.214 81.0153 26.3472 81.0153 28.9849V38.6389ZM103.186 45.5421C103.186 44.476 102.512 43.4103 101.053 43.4103C99.313 43.3535 97.9662 42.0068 97.9662 40.2663V10.3503C97.9662 8.9463 96.9 8.21753 95.833 8.21753C94.7668 8.21753 93.7002 8.94676 93.7002 10.3503V40.2663C93.7002 44.3634 96.9559 47.6754 101.053 47.6754C102.512 47.6754 103.186 46.6088 103.186 45.5421ZM127.657 38.6389V28.9849C127.657 23.9892 123.617 19.9485 118.621 19.9485H118.06C113.064 19.9485 109.023 23.9892 109.023 28.9849V38.6389C109.023 43.6346 113.064 47.6754 118.06 47.6754H118.621C123.616 47.6754 127.657 43.6346 127.657 38.6389ZM123.392 38.6389C123.392 41.2771 121.259 43.4103 118.621 43.4103H118.116C115.422 43.4103 113.289 41.2771 113.289 38.6389V28.9849C113.289 26.3472 115.422 24.214 118.06 24.214H118.621C121.259 24.214 123.392 26.3472 123.392 28.9849V38.6389V38.6389ZM153.532 38.6389C153.532 37.18 152.466 36.4503 151.399 36.4503C150.39 36.4503 149.322 37.18 149.267 38.6389C149.154 41.2771 147.133 43.4103 144.496 43.4103H143.99C141.296 43.4103 139.164 41.2771 139.164 38.6389V28.9849C139.164 26.3472 141.296 24.214 143.934 24.214H144.495C147.133 24.214 149.154 26.1783 149.266 29.0408C149.322 30.4448 150.389 31.1181 151.399 31.1181C152.466 31.1181 153.532 30.388 153.532 28.9849C153.532 23.9892 149.435 19.9485 144.495 19.9485H143.934C138.995 19.9485 134.897 23.9334 134.897 28.9849V38.6389C134.897 43.6346 138.938 47.6754 143.934 47.6754H144.495C149.491 47.6754 153.532 43.6346 153.532 38.6389ZM180.417 45.5421C180.417 45.2057 180.361 44.8134 180.137 44.476L172.447 31.0051L179.407 23.5965C179.856 23.1474 180.024 22.6425 180.024 22.1371C180.024 21.0137 179.07 19.948 177.836 19.948C177.33 19.948 176.769 20.1718 176.32 20.6777L165.655 32.0154V10.3503C165.655 8.9463 164.589 8.21753 163.522 8.21753C162.456 8.21753 161.389 8.94676 161.389 10.3503V45.5421C161.389 46.9457 162.456 47.6754 163.522 47.6754C164.589 47.6754 165.655 46.9457 165.655 45.5421V38.3011L169.416 34.2603L176.432 46.552C176.881 47.3389 177.554 47.6754 178.228 47.6754C179.52 47.6754 180.417 46.6646 180.417 45.5421ZM204.664 38.6389C204.664 37.18 203.597 36.4503 202.531 36.4503C201.521 36.4503 200.454 37.18 200.398 38.6389C200.286 41.2771 198.265 43.4103 195.628 43.4103H195.121C192.427 43.4103 190.295 41.2771 190.295 38.6389V28.9849C190.295 26.3472 192.427 24.214 195.066 24.214H195.628C198.265 24.214 200.286 26.1783 200.398 29.0408C200.454 30.4448 201.522 31.1181 202.531 31.1181C203.598 31.1181 204.664 30.388 204.664 28.9849C204.664 23.9892 200.567 19.9485 195.628 19.9485H195.066C190.127 19.9485 186.03 23.9334 186.03 28.9849V38.6389C186.03 43.6346 190.071 47.6754 195.066 47.6754H195.628C200.623 47.6754 204.664 43.6346 204.664 38.6389ZM231.157 45.5421V28.9849C231.157 23.9892 227.115 19.9485 222.119 19.9485H221.671C219.706 19.9485 217.741 20.6218 216.786 21.6321V10.3503C216.786 8.9463 215.72 8.21753 214.655 8.21753C213.588 8.21753 212.522 8.94676 212.522 10.3503V45.5421C212.522 46.9457 213.588 47.6754 214.655 47.6754C215.721 47.6754 216.786 46.9457 216.786 45.5421V28.7043C216.786 25.7851 219.313 24.214 221.896 24.214C224.364 24.214 226.89 25.7297 226.89 28.9849V45.5421C226.89 46.9457 227.957 47.6754 229.023 47.6754C230.09 47.6754 231.157 46.9457 231.157 45.5421ZM259.22 45.4877C259.22 44.5886 258.659 43.6905 257.424 43.4661C256.414 43.2981 255.965 42.6234 255.965 41.6135V28.5912C255.965 23.7645 252.148 19.948 247.153 19.948H246.759C243.785 19.948 240.192 21.1268 238.396 25.168C238.228 25.5045 238.171 25.8409 238.171 26.1783C238.171 27.3571 239.238 28.1426 240.305 28.1426C241.035 28.1426 241.764 27.8061 242.213 27.0197C243.28 25.1675 244.458 24.2135 246.76 24.2135H247.153C249.623 24.2135 251.699 25.4486 251.699 28.7592C251.699 29.0403 251.699 29.4894 251.532 29.7137C250.185 31.6226 237.724 30.0501 237.33 38.9186V39.592C237.33 44.8129 241.821 47.6749 246.367 47.6749H246.873C249.174 47.6749 251.307 46.8331 252.935 45.4309C253.664 46.4971 254.843 47.3389 256.751 47.6191C256.864 47.6749 257.032 47.6749 257.145 47.6749C258.491 47.6754 259.22 46.6088 259.22 45.4877ZM251.699 38.6389C251.699 41.2771 249.51 43.4103 246.872 43.4103H246.367C243.504 43.4103 241.596 41.8946 241.596 39.4808V39.0312C241.764 35.1021 247.546 35.3274 251.699 34.2049V38.6389ZM270.221 45.5421V22.0812C270.221 20.6777 269.154 19.9485 268.088 19.9485C267.023 19.9485 265.956 20.6781 265.956 22.0812V45.5421C265.956 46.9457 267.023 47.6754 268.088 47.6754C269.154 47.6754 270.221 46.9457 270.221 45.5421ZM297.835 45.5421V28.9849C297.835 22.8105 293.626 19.9485 288.855 19.9485H288.35C286.385 19.9485 284.533 20.6218 283.523 21.6321C283.299 20.5088 282.343 19.9485 281.39 19.9485C280.267 19.9485 279.201 20.734 279.201 22.0812V45.5421C279.201 46.9457 280.267 47.6754 281.334 47.6754C282.401 47.6754 283.467 46.9457 283.467 45.5421V28.9849C283.467 26.3472 285.656 24.214 288.293 24.214H288.799C291.493 24.214 293.626 26.3472 293.626 28.9849V45.5421C293.626 46.9457 294.693 47.6754 295.759 47.6754C296.826 47.6754 297.835 46.9457 297.835 45.5421ZM319.861 45.5421V22.0812C319.861 20.6777 318.795 19.9485 317.728 19.9485C316.663 19.9485 315.596 20.6781 315.596 22.0812V45.5421C315.596 46.9457 316.663 47.6754 317.728 47.6754C318.795 47.6754 319.861 46.9457 319.861 45.5421ZM346.858 38.6389V28.9849C346.858 23.9892 342.817 19.9485 337.822 19.9485H337.261C332.265 19.9485 328.225 23.9892 328.225 28.9849V38.6389C328.225 43.6346 332.265 47.6754 337.261 47.6754H337.822C342.817 47.6754 346.858 43.6346 346.858 38.6389ZM342.593 38.6389C342.593 41.2771 340.46 43.4103 337.822 43.4103H337.317C334.621 43.4103 332.49 41.2771 332.49 38.6389V28.9849C332.49 26.3472 334.621 24.214 337.261 24.214H337.822C340.46 24.214 342.593 26.3472 342.593 28.9849V38.6389Z" fill="white" fill-opacity="0.5"/>
<path d="M24.3802 26.5767C23.0805 26.5767 22.0236 27.634 22.0236 28.9333C22.0236 30.2325 23.0809 31.2894 24.3802 31.2894C25.6794 31.2894 26.7373 30.2325 26.7373 28.9333C26.7373 27.634 25.6799 26.5767 24.3802 26.5767Z" fill="white" fill-opacity="0.5"/>
<path d="M35.2767 20.0381C33.977 20.0381 32.921 21.0955 32.921 22.3947C32.921 23.6944 33.9775 24.7509 35.2767 24.7509C36.5759 24.7509 37.6342 23.6939 37.6342 22.3947C37.6347 21.0955 36.5764 20.0381 35.2767 20.0381Z" fill="white" fill-opacity="0.5"/>
<path d="M46.1737 13.5002C44.8745 13.5002 43.8171 14.5572 43.8171 15.8564C43.8171 17.1561 44.8745 18.2144 46.1737 18.2144C47.4738 18.2144 48.5303 17.1566 48.5303 15.8564C48.5303 14.5572 47.4738 13.5002 46.1737 13.5002Z" fill="white" fill-opacity="0.5"/>
<path d="M13.483 6.96167C12.1837 6.96167 11.1263 8.01905 11.1263 9.31875C11.1263 10.618 12.1837 11.6749 13.483 11.6749C14.7827 11.6749 15.84 10.618 15.84 9.31875C15.84 8.01905 14.7831 6.96167 13.483 6.96167Z" fill="white" fill-opacity="0.5"/>
<path d="M24.3804 0.423584C23.0807 0.423584 22.0238 1.48143 22.0238 2.78066C22.0238 4.08035 23.0812 5.13774 24.3804 5.13774C25.6797 5.13774 26.7375 4.08035 26.7375 2.78066C26.7375 1.48143 25.6801 0.423584 24.3804 0.423584Z" fill="white" fill-opacity="0.5"/>
<path d="M24.3802 13.5002C23.0805 13.5002 22.0236 14.5572 22.0236 15.8564C22.0236 17.1561 23.0809 18.2144 24.3802 18.2144C25.6794 18.2144 26.7373 17.1566 26.7373 15.8564C26.7373 14.5572 25.6799 13.5002 24.3802 13.5002Z" fill="white" fill-opacity="0.5"/>
<path d="M35.2767 6.96167C33.977 6.96167 32.921 8.01905 32.921 9.31875C32.921 10.618 33.9775 11.6749 35.2767 11.6749C36.5759 11.6749 37.6342 10.618 37.6342 9.31875C37.6347 8.01905 36.5764 6.96167 35.2767 6.96167Z" fill="white" fill-opacity="0.5"/>
<path d="M35.2767 33.1147C33.977 33.1147 32.921 34.1717 32.921 35.4704C32.921 36.7701 33.9775 37.8271 35.2767 37.8271C36.5759 37.8271 37.6342 36.7701 37.6342 35.4704C37.6347 34.1717 36.5764 33.1147 35.2767 33.1147Z" fill="white" fill-opacity="0.5"/>
<path d="M46.1737 26.5767C44.8745 26.5767 43.8171 27.634 43.8171 28.9333C43.8171 30.2325 44.8745 31.2894 46.1737 31.2894C47.4738 31.2894 48.5303 30.2325 48.5303 28.9333C48.5303 27.634 47.4738 26.5767 46.1737 26.5767Z" fill="white" fill-opacity="0.5"/>
<path d="M35.2767 46.1907C33.977 46.1907 32.921 47.2476 32.921 48.5473C32.921 49.8465 33.9775 50.9034 35.2767 50.9034C36.5759 50.9034 37.6342 49.8465 37.6342 48.5473C37.6347 47.2476 36.5764 46.1907 35.2767 46.1907Z" fill="white" fill-opacity="0.5"/>
<path d="M46.1737 39.6526C44.8745 39.6526 43.8171 40.7095 43.8171 42.0092C43.8171 43.3084 44.8745 44.3654 46.1737 44.3654C47.4738 44.3654 48.5303 43.3084 48.5303 42.0092C48.5303 40.7095 47.4738 39.6526 46.1737 39.6526Z" fill="white" fill-opacity="0.5"/>
<path d="M24.3802 52.7288C23.0805 52.7288 22.0236 53.7861 22.0236 55.0854C22.0236 56.3841 23.0809 57.4415 24.3802 57.4415C25.6794 57.4415 26.7373 56.3841 26.7373 55.0854C26.7373 53.7861 25.6799 52.7288 24.3802 52.7288Z" fill="white" fill-opacity="0.5"/>
<path d="M24.3802 39.6526C23.0805 39.6526 22.0236 40.7095 22.0236 42.0092C22.0236 43.3084 23.0809 44.3654 24.3802 44.3654C25.6794 44.3654 26.7373 43.3084 26.7373 42.0092C26.7373 40.7095 25.6799 39.6526 24.3802 39.6526Z" fill="white" fill-opacity="0.5"/>
<path d="M13.483 20.0381C12.1837 20.0381 11.1263 21.0955 11.1263 22.3947C11.1263 23.6944 12.1837 24.7509 13.483 24.7509C14.7826 24.7509 15.84 23.6939 15.84 22.3947C15.84 21.0955 14.7831 20.0381 13.483 20.0381Z" fill="white" fill-opacity="0.5"/>
<path d="M13.483 46.1907C12.1837 46.1907 11.1263 47.2476 11.1263 48.5473C11.1263 49.8465 12.1837 50.9034 13.483 50.9034C14.7826 50.9034 15.84 49.8465 15.84 48.5473C15.84 47.2476 14.7831 46.1907 13.483 46.1907Z" fill="white" fill-opacity="0.5"/>
<path d="M13.483 33.1147C12.1837 33.1147 11.1263 34.1717 11.1263 35.4704C11.1263 36.7701 12.1837 37.8271 13.483 37.8271C14.7826 37.8271 15.84 36.7701 15.84 35.4704C15.84 34.1717 14.7831 33.1147 13.483 33.1147Z" fill="white" fill-opacity="0.5"/>
<path d="M2.58645 13.5002C1.28676 13.5002 0.230301 14.5572 0.230301 15.8564C0.230301 17.1561 1.28722 18.2144 2.58645 18.2144C3.88569 18.2144 4.94353 17.1566 4.94353 15.8564C4.94353 14.5572 3.88569 13.5002 2.58645 13.5002Z" fill="white" fill-opacity="0.5"/>
<path d="M2.58645 39.6523C1.28676 39.6523 0.230301 40.7093 0.230301 42.009C0.230301 43.3082 1.28722 44.3651 2.58645 44.3651C3.88569 44.3651 4.94353 43.3082 4.94353 42.009C4.94353 40.7093 3.88569 39.6523 2.58645 39.6523Z" fill="white" fill-opacity="0.5"/>
<path d="M2.58645 26.5767C1.28676 26.5767 0.230301 27.634 0.230301 28.9333C0.230301 30.2325 1.28722 31.2894 2.58645 31.2894C3.88569 31.2894 4.94353 30.2325 4.94353 28.9333C4.94353 27.634 3.88569 26.5767 2.58645 26.5767Z" fill="white" fill-opacity="0.5"/>
<path d="M268.053 8.10034C266.871 8.10034 265.908 9.06173 265.908 10.2442C265.908 11.4266 266.871 12.3885 268.053 12.3885C269.235 12.3885 270.198 11.4266 270.198 10.2442C270.198 9.06173 269.236 8.10034 268.053 8.10034Z" fill="white" fill-opacity="0.5"/>
<path d="M317.71 8.10034C316.528 8.10034 315.565 9.06173 315.565 10.2442C315.565 11.4266 316.528 12.3885 317.71 12.3885C318.893 12.3885 319.854 11.4266 319.854 10.2442C319.855 9.06173 318.893 8.10034 317.71 8.10034Z" fill="white" fill-opacity="0.5"/>
<path d="M306.461 43.5637C305.286 43.5637 304.328 44.52 304.328 45.696C304.328 46.872 305.286 47.8293 306.461 47.8293C307.638 47.8293 308.594 46.872 308.594 45.696C308.594 44.52 307.638 43.5637 306.461 43.5637Z" fill="white" fill-opacity="0.5"/>
</svg>
